<?xml version="1.0"?>
<svg xmlns="http://www.w3.org/2000/svg" xmlns:xlink="http://www.w3.org/1999/xlink" xmlns:svgjs="http://svgjs.com/svgjs" version="1.1" width="512" height="512" x="0" y="0" viewBox="0 0 511.999 511.999" style="enable-background:new 0 0 512 512" xml:space="preserve" class=""><g><g xmlns="http://www.w3.org/2000/svg"><path d="m410.487 511.999c-1.923 0-3.875-.249-5.818-.769l-201.823-54.079c-5.805-1.556-10.657-5.279-13.662-10.483-3.005-5.205-3.803-11.269-2.247-17.074l21.261-79.348h-69.669c-12.406 0-22.5-10.093-22.5-22.5v-40.421c-30.008-21.831-39.258-37.585-43.757-54.377-6.913-25.801 8.453-52.415 34.253-59.328 3.147-.843 6.325-1.376 9.504-1.595v-45.187c0-4.142 3.357-7.5 7.5-7.5s7.5 3.358 7.5 7.5v200.908c0 4.136 3.364 7.5 7.5 7.5h73.688l27.952-104.32c1.071-4.001 5.183-6.375 9.186-5.304 4.001 1.072 6.375 5.185 5.303 9.186l-53.232 198.668c-.519 1.936-.252 3.957.749 5.691 1.002 1.735 2.619 2.976 4.555 3.494l201.823 54.079c3.995 1.073 8.114-1.309 9.186-5.304l7.586-28.309c1.071-4.001 5.184-6.375 9.186-5.303 4.001 1.072 6.375 5.185 5.303 9.186l-7.586 28.309c-2.693 10.041-11.809 16.68-21.741 16.68zm-294.459-324.922c-1.875.187-3.753.531-5.621 1.032-17.812 4.772-28.419 23.146-23.647 40.957 2.647 9.88 7.437 21.749 29.269 39.379v-81.368zm324.599 255.43c-.643 0-1.296-.083-1.946-.257-4.001-1.072-6.375-5.185-5.303-9.186l63.362-236.472c1.069-3.995-1.31-8.116-5.304-9.186l-201.824-54.078c-3.993-1.071-8.114 1.308-9.186 5.303l-17.841 66.584c-1.071 4.001-5.184 6.375-9.186 5.304-4.001-1.072-6.375-5.185-5.303-9.186l17.841-66.584c3.211-11.983 15.568-19.124 27.557-15.91l201.824 54.078c11.982 3.211 19.12 15.573 15.909 27.556l-63.362 236.473c-.896 3.351-3.926 5.56-7.238 5.561zm-339.115-.508c-9.934 0-19.048-6.638-21.738-16.679l-79.004-294.846c-3.211-11.984 3.927-24.346 15.909-27.557l99.349-26.62v-53.797c0-12.407 10.094-22.5 22.5-22.5h208.943c12.406 0 22.5 10.093 22.5 22.5v90.462c0 4.142-3.357 7.5-7.5 7.5s-7.5-3.358-7.5-7.5v-90.462c0-4.136-3.364-7.5-7.5-7.5h-208.943c-4.136 0-7.5 3.364-7.5 7.5v74.338c0 4.142-3.357 7.5-7.5 7.5s-7.5-3.358-7.5-7.5v-5.012l-95.466 25.58c-3.994 1.07-6.373 5.191-5.304 9.186l79.004 294.846c1.071 3.994 5.189 6.375 9.186 5.303l63.86-17.111c4.003-1.071 8.114 1.302 9.186 5.304 1.072 4.001-1.302 8.113-5.303 9.186l-63.86 17.111c-1.944.519-3.897.768-5.819.768zm262.107-24.232c-.643 0-1.296-.083-1.946-.257l-73.752-19.762c-4.001-1.072-6.375-5.185-5.303-9.186 1.071-4.001 5.184-6.375 9.186-5.304l6.91 1.852c11.914-6.148 20.89-13.653 27.076-22.682-6.719 1.812-14.789 2.382-23.833-.041-11.702-3.136-21.483-10.642-27.541-21.134s-7.667-22.715-4.53-34.418c2.612-9.749 7.44-21.721 23.446-36.593 15.495-14.397 39.748-30.246 76.325-49.878 3.49-1.874 7.837-.708 9.923 2.659 21.86 35.291 34.939 61.143 41.16 81.358 6.426 20.883 4.621 33.665 2.009 43.414-3.136 11.703-10.641 21.483-21.133 27.542-10.492 6.058-22.714 7.667-34.418 4.531-9.044-2.423-15.749-6.953-20.661-11.882.843 10.914 4.863 21.901 12.107 33.182l6.911 1.852c4.001 1.072 6.375 5.185 5.303 9.186-.898 3.351-3.928 5.561-7.239 5.561zm-44.939-27.307 19.997 5.358c-2.717-6.02-4.675-12.05-5.873-18.077-4.052 4.621-8.762 8.864-14.124 12.719zm22.788-52.546c.646 0 1.299.083 1.94.255 2.611.7 4.645 2.751 5.32 5.369.179.655 4.853 17.153 22.352 21.841 7.829 2.099 16.013 1.021 23.035-3.032 7.022-4.055 12.046-10.601 14.145-18.433 4.243-15.838 4.734-37.212-37.73-106.963-71.651 39.175-81.912 57.93-86.156 73.768-2.099 7.833-1.021 16.014 3.032 23.036 4.055 7.022 10.601 12.046 18.434 14.145 17.751 4.757 30.154-7.614 30.277-7.74 1.428-1.456 3.365-2.246 5.351-2.246zm-159.723-17.667c-2.387 0-4.632-1.136-6.045-3.061l-20.724-28.217c-1.94-2.642-1.94-6.237 0-8.879l20.724-28.217c1.413-1.924 3.657-3.061 6.045-3.061 2.387 0 4.632 1.136 6.045 3.06l20.725 28.218c1.94 2.642 1.94 6.237 0 8.879l-20.725 28.217c-1.414 1.924-3.659 3.061-6.045 3.061zm-11.418-35.717 11.418 15.547 11.419-15.547-11.419-15.547zm11.418-73.69c-2.387 0-4.632-1.136-6.045-3.061l-20.724-28.217c-1.94-2.642-1.94-6.237 0-8.879l20.724-28.217c1.413-1.924 3.657-3.061 6.045-3.061 2.387 0 4.632 1.136 6.045 3.06l20.725 28.218c1.94 2.642 1.94 6.237 0 8.879l-20.725 28.218c-1.414 1.924-3.659 3.06-6.045 3.06zm-11.418-35.716 11.418 15.547 11.419-15.547-11.419-15.547zm133.927-73.69c-2.387 0-4.632-1.136-6.045-3.06l-20.725-28.217c-1.94-2.642-1.94-6.238 0-8.879l20.725-28.218c1.413-1.923 3.658-3.06 6.045-3.06 2.388 0 4.632 1.136 6.045 3.061l20.724 28.217c1.94 2.642 1.94 6.237 0 8.879l-20.724 28.217c-1.413 1.924-3.658 3.06-6.045 3.06zm-11.419-35.717 11.419 15.547 11.418-15.547-11.418-15.547zm-111.09 35.717c-2.387 0-4.632-1.136-6.045-3.061l-20.724-28.217c-1.94-2.642-1.94-6.237 0-8.879l20.724-28.216c1.413-1.924 3.657-3.061 6.045-3.061 2.387 0 4.632 1.136 6.045 3.06l20.725 28.218c1.94 2.642 1.94 6.237 0 8.879l-20.725 28.217c-1.414 1.924-3.659 3.06-6.045 3.06zm-11.418-35.717 11.418 15.547 11.419-15.547-11.419-15.547z" fill="#ff1515" data-original="#000000" style="" class=""/></g></g></svg>
