<svg width="150" height="150" viewBox="0 0 150 150" fill="none" xmlns="http://www.w3.org/2000/svg">
<path fill-rule="evenodd" clip-rule="evenodd" d="M127.089 77.5966C126.396 80.4908 125.704 83.2472 125.15 85.8657L130.69 102.404L139 77.5966H127.089ZM35.8175 28.9468C32.909 27.5686 29.585 26.8795 26.261 27.0173C23.768 27.0173 21.1365 27.4308 18.782 28.2577C16.843 28.9468 15.0425 30.1871 13.6575 31.7031C12.5495 32.9435 11.7185 34.5973 11.4415 36.2511C11.1645 38.594 11.026 40.937 11.026 43.2799V55.9592C10.8875 59.2668 11.303 62.4366 12.2725 65.6064C13.242 67.8115 15.0425 69.6032 17.2585 70.5679C20.3055 71.8083 23.491 72.4974 26.6765 72.3595C29.862 72.4974 33.0475 71.6705 35.956 70.2923C38.172 69.1897 39.834 67.5359 40.8035 65.3308C41.6345 62.161 42.05 58.9912 41.9115 55.6835V54.0297H28.8925V59.5424C29.031 61.0584 28.8925 62.5744 28.477 64.0904C28.0615 64.7795 27.369 65.193 26.538 65.0552C25.707 65.193 25.0145 64.7795 24.599 64.0904C24.1835 62.7123 24.045 61.3341 24.1835 59.9559V39.6966C24.045 38.3184 24.1835 36.8024 24.599 35.4242C24.876 34.7351 25.5685 34.4595 26.6765 34.4595C27.369 34.3217 28.0615 34.7351 28.477 35.2864C28.8925 36.6646 29.031 38.0428 28.8925 39.421V47.001H41.9115V42.8664C42.05 39.8344 41.773 36.8024 40.8035 33.9082C39.834 31.5653 38.0335 29.9115 35.8175 28.9468ZM90.6635 27.8442H77.6445V71.3948H98.558V62.7123H90.6635V27.8442ZM114.762 27.8442H101.743V71.3948H122.657V62.7123H114.762V27.8442ZM48.975 27.7064L42.327 71.3948H54.6535L58.947 37.2159L61.3015 55.9592H58.67L57.839 63.2635H62.271L63.2405 71.3948H75.567L67.9495 27.7064H48.975ZM130.828 44.7959C130.413 44.2446 129.997 43.8311 129.305 43.5555C128.612 43.2799 127.92 43.1421 127.227 43.1421C126.535 43.1421 125.842 43.2799 125.15 43.5555C124.596 43.8311 124.042 44.2446 123.765 44.7959C123.349 45.3471 123.211 45.8984 123.072 46.4497C123.072 47.1388 122.934 48.1035 122.934 49.6195V52.2381C122.934 53.7541 122.934 54.8566 123.072 55.5457C123.211 56.097 123.349 56.7861 123.765 57.1995C124.18 57.7508 124.596 58.1643 125.288 58.4399C125.981 58.7155 126.673 58.8533 127.366 58.8533C128.058 58.8533 128.751 58.7155 129.443 58.4399C129.997 58.1643 130.551 57.7508 130.828 57.1995C131.244 56.6483 131.382 56.097 131.521 55.5457C131.521 54.8566 131.659 53.8919 131.659 52.3759V49.8952C131.659 48.3792 131.659 47.2766 131.521 46.5875C131.382 45.8984 131.105 45.3471 130.828 44.7959ZM127.781 54.3053C127.781 54.8566 127.781 55.4079 127.643 55.9592C127.643 56.2348 127.366 56.3726 127.227 56.3726C126.95 56.3726 126.812 56.2348 126.812 56.097C126.673 55.5457 126.673 54.9944 126.673 54.581V47.5522C126.673 47.1388 126.673 46.5875 126.812 46.1741C126.95 46.0362 127.089 45.8984 127.227 45.8984C127.366 45.8984 127.643 46.0362 127.643 46.1741C127.781 46.5875 127.781 47.1388 127.781 47.5522V54.3053ZM124.319 89.8625L123.626 87.6574L120.302 77.5966H108.391L117.532 105.574V121.423H129.582V105.574L124.319 89.8625ZM132.767 58.5777H136.23V52.2381H138.446V49.3439H136.23V46.4497H138.723V43.5555H132.767V58.5777ZM39.003 80.7665C37.618 79.5261 35.8175 78.5614 33.8785 78.2857C29.585 77.5966 25.2915 77.4588 21.1365 77.5966H11.303V121.147H27.7845C30.139 121.147 32.4935 121.009 34.848 120.734C36.233 120.458 37.618 119.907 38.726 119.218C39.834 118.529 40.5265 117.426 40.942 116.186C41.496 113.567 41.773 110.949 41.6345 108.33V92.8945C41.773 90.1381 41.6345 87.3817 41.219 84.6254C40.8035 83.2472 40.111 81.869 39.003 80.7665ZM28.477 107.365C28.477 110.26 28.2 112.051 27.7845 112.74C27.369 113.429 26.1225 113.705 24.322 113.705V85.0388C25.2915 84.901 26.261 85.0388 27.2305 85.4523C27.7845 85.7279 28.0615 86.1414 28.2 86.6926C28.3385 87.933 28.477 89.1734 28.477 90.5516V107.365ZM77.3675 86.2792H85.1235V121.147H98.281V86.2792H106.037V77.5966H77.3675V86.2792ZM61.5785 109.708C61.717 111.087 61.5785 112.465 61.3015 113.843C61.0245 114.394 60.332 114.808 59.6395 114.67C59.0855 114.67 58.5315 114.394 58.2545 113.843C57.9775 112.603 57.839 111.362 57.9775 110.26V77.5966H44.9585V103.369C44.9585 106.538 44.9585 109.846 45.2355 113.016C45.5125 114.67 46.205 116.186 47.1745 117.426C48.5595 118.942 50.36 120.183 52.299 120.734C54.792 121.699 57.562 122.112 60.1935 121.974C62.548 121.974 64.9025 121.699 67.257 120.872C69.0575 120.183 70.7195 119.08 72.1045 117.702C73.2125 116.599 73.905 115.083 74.3205 113.567C74.5975 111.224 74.736 108.881 74.736 106.538V77.5966H61.717L61.5785 109.708Z" fill="#887A5E"/>
</svg>
