<svg width="150" height="150" viewBox="0 0 150 150" fill="none" xmlns="http://www.w3.org/2000/svg">
<path d="M134.375 31.4907C132.794 31.4876 130.575 31.3219 129.01 31.5657C126.678 31.9782 124.303 31.2969 121.953 31.2251C121.919 30.6501 122.356 29.6219 122.335 29.0501C121.894 28.9938 121.456 28.9626 121.031 28.8626C120.635 27.4344 120.788 25.9282 120.741 24.4626C120.516 24.4594 120.063 24.4501 119.838 24.4438C119.766 26.1126 119.772 27.7813 119.753 29.4501C119.175 28.9782 118.772 28.0626 117.931 28.1282L94.9752 28.1251C93.7627 28.2563 92.8159 27.4282 91.8377 26.8438C91.744 26.0751 91.6221 25.3126 91.4721 24.5563C90.7846 25.5032 90.7221 26.7157 90.469 27.8313C88.644 28.1938 86.8409 29.2157 84.9815 29.3782C84.819 28.3032 84.6471 27.2313 84.5284 26.1469C85.5127 25.6719 86.619 25.3532 87.4346 24.5782C88.394 21.7719 87.2846 18.8532 86.6502 16.1094C84.6846 14.6782 82.5065 13.4126 80.2409 12.5001H76.9846C74.7471 13.2313 72.519 14.4282 71.2471 16.5344C69.2784 19.6251 69.0065 23.5938 70.244 27.0251C70.069 27.1438 69.719 27.3876 69.544 27.5126C67.4127 25.8251 64.4659 26.6594 62.4252 28.0751C59.4627 30.3219 57.8815 33.9969 57.2252 37.6219C56.5471 40.6938 56.8502 43.8469 57.2127 46.9344C55.9877 47.2375 54.7315 47.2969 53.4846 47.3907C52.9627 47.4126 52.3034 47.6219 52.2471 48.2438C51.8721 50.6875 52.1502 53.2001 51.6471 55.6282C51.3221 57.1844 51.1127 58.7657 51.1659 60.3594C52.5315 60.6688 53.9065 60.9657 55.2784 61.2563C54.3409 61.6875 53.2627 61.9938 52.594 62.8469C52.0065 66.7875 53.4065 70.6719 53.2815 74.625C52.594 75.225 51.7346 75.7657 51.5096 76.7282C51.0877 77.8625 51.7596 79.0157 51.594 80.175C51.4346 81.4375 51.719 82.6938 52.1221 83.875C52.5002 84.8657 52.1846 85.9282 52.0346 86.9375C51.5909 89.55 51.0815 92.1688 50.9721 94.8219C50.8846 96.2219 51.369 97.6657 50.9221 99.025C49.4659 102.363 47.019 105.147 45.7252 108.569C45.1534 110.144 45.444 111.944 44.6221 113.438C43.744 115.119 42.5315 116.778 42.6409 118.794C42.544 120.159 43.6315 121.384 43.1721 122.75C42.4909 125.534 41.8065 128.322 41.0502 131.091C40.5377 132.931 40.4409 134.947 41.0127 136.784C41.7784 137.188 42.6409 137.322 43.4784 137.503H46.7002C47.7409 137.406 48.7721 137.231 49.8127 137.084C50.1127 135.641 49.7596 134.231 49.2721 132.888C48.6659 129.5 49.2065 125.9 50.8971 122.913C51.4815 122.138 52.544 121.838 52.9596 120.913C53.5815 119.591 53.8784 118.144 54.4471 116.8C55.2471 114.888 56.3409 113.091 56.8409 111.056C57.119 109.944 56.8002 108.803 56.9002 107.678C57.2034 106.431 57.7627 105.209 58.6815 104.309C59.9127 103.156 60.394 101.391 61.7409 100.344C62.6596 99.6563 62.7034 98.425 62.8971 97.3719C63.0784 95.9782 63.5315 94.6438 64.0346 93.3407C64.7502 91.5375 65.244 89.5594 66.6221 88.1375C67.4971 87.2219 67.9346 86.0032 68.2534 84.7907C68.8002 85.85 69.2377 87.025 70.1159 87.8563C71.1002 88.35 72.5346 88.0844 73.1315 89.2125C74.8471 91.825 74.9752 93.3125 76.6971 95.925C77.519 97.5469 79.5002 97.15 80.9659 97.1938C81.8096 98.3532 82.7502 98.6875 82.469 100.094C82.4159 101.678 81.0784 102.9 81.2659 104.522C81.4127 107.822 81.6565 111.15 82.5127 114.347C82.8127 115.838 83.5877 117.206 83.6127 118.756C83.6502 120.55 83.3096 123.488 82.9502 125.259C82.0752 127.631 81.4784 130.113 81.3659 132.653C83.4346 133.872 85.8221 132.634 87.9846 133.356C90.3565 134.141 92.844 134.422 95.3284 134.375C96.8565 134.347 98.3877 134.197 99.8909 133.963C99.9002 133.097 100.181 132.156 99.7877 131.347C98.5377 129.869 96.4471 129.863 94.9284 128.841C93.7002 127.734 92.6971 126.384 91.6721 125.088C90.8065 124.069 91.9659 122.659 91.9315 121.375C91.944 119.425 91.9346 117.416 92.6534 115.578C93.1846 114.116 93.0065 112.534 92.719 111.044C92.3315 109.209 92.9877 107.4 93.1565 105.584C93.4002 103.109 93.5752 100.628 93.7315 98.1469C93.844 96.7313 93.3596 95.3813 93.0159 94.0344C92.8127 92.7657 91.6065 92.05 91.2534 90.8469C89.1846 85.1407 87.2909 80.4438 83.2159 75.8938C81.6502 74.3344 80.8596 71.7282 81.8096 69.6313C82.6909 69.8719 83.5659 70.1375 84.4596 70.3625C85.4127 69.0782 86.344 67.6594 86.4971 66.0094C86.6534 64.3094 86.7002 62.6 86.8502 60.9C86.919 59.0469 87.319 57.1375 86.8409 55.3188C86.5284 54.075 85.3002 53.5375 84.3502 52.9063C84.5784 52.0407 84.8096 51.1813 85.0127 50.3094C88.1471 51.8376 91.0534 54.0532 94.5627 54.5969C95.5034 54.7407 96.5096 55.1907 97.444 54.7594C98.7315 54.1407 99.7252 53.0594 100.85 52.1907C102.888 50.5876 102.606 47.6626 103.316 45.3751C104.01 45.1063 104.716 44.8594 105.419 44.5969C104.956 42.5688 104.15 40.5188 104.425 38.4032C105.269 37.2501 106.335 36.5594 107.213 35.4313C107.841 34.5751 108.928 34.3532 109.919 34.3782C112.903 34.3626 115.891 34.4157 118.878 34.3813C118.975 33.9469 118.622 34.8157 118.728 34.3813C121.835 34.5594 124.944 33.8844 128.056 34.2719C129.997 34.6063 132.603 34.4688 134.553 34.3251C134.45 33.7501 134.4 32.0626 134.375 31.4907ZM95.9471 42.4188C95.3565 41.3626 94.4721 40.3688 94.2971 39.1501C94.3909 39.0219 94.5846 38.7751 94.6784 38.6501C95.9471 38.5157 97.2252 38.6001 98.4971 38.6626C97.6752 39.9313 96.8065 41.1751 95.9471 42.4188ZM95.7627 38.3313C96.6065 37.9001 96.8784 37.0094 96.9877 36.1126C97.6659 36.0782 98.3471 36.0563 99.0346 36.0407C99.0596 36.7001 99.0815 37.3532 99.1065 38.0126C98.0065 38.2594 96.8784 38.2563 95.7627 38.3313Z" fill="#333333"/>
<path d="M134.375 71.8749H112.5V65.6249H140.625C140.216 63.1468 138.562 60.9343 136.266 59.9749C134.725 59.2687 133.003 59.3812 131.359 59.3812L112.5 59.3749C109.375 59.3749 106.25 62.4999 106.25 65.6249V71.8749C106.422 74.9937 109.375 78.1249 112.5 78.1249H134.375V84.3749H106.25C106.669 86.3656 107.719 88.2406 109.431 89.3531C110.931 90.4343 112.816 90.6781 114.609 90.6249H134.375C137.5 90.6249 140.625 87.4999 140.625 84.3749V78.1249C140.625 74.9999 137.875 71.9343 134.375 71.8749Z" fill="#333333"/>
<path d="M15.625 65.6251H40.625C40.625 62.172 37.8281 59.3751 34.375 59.3751H15.625C12.1719 59.3751 9.375 62.172 9.375 65.6251V84.3751C9.375 87.8283 12.1719 90.6251 15.625 90.6251H34.375C37.8281 90.6251 40.625 87.8283 40.625 84.3751H15.625V65.6251Z" fill="#333333"/>
</svg>
