<svg width="148" height="150" viewBox="0 0 148 150" fill="none" xmlns="http://www.w3.org/2000/svg">
<path d="M135.691 24.0004V18.0004C135.691 16.3444 134.373 15.0004 132.741 15.0004H120.942C119.774 15.0004 118.836 15.0784 117.992 15.3004V15.0004C117.992 13.3444 116.674 12.0004 115.042 12.0004H97.3436C92.2286 12.0004 90.3791 14.9524 89.2935 18.0004H86.8983C86.211 17.0674 85.5443 15.8584 85.5443 15.0004C85.5443 13.3444 84.2257 12.0004 82.5945 12.0004H61.9458C60.4384 12.0004 59.173 13.1794 59.0107 14.7004C58.9429 15.3304 57.6892 18.0004 55.7394 18.0004H47.6569C47.4652 17.7694 47.1879 17.3404 46.9489 16.7914C46.477 15.7024 45.415 15.0004 44.2469 15.0004H14.7488C13.1175 15.0004 11.799 16.3444 11.799 18.0004V42.0004C11.799 50.4694 14.2325 61.1914 14.7458 63.3544L14.7222 67.8994L12.7222 69.8224C12.1323 70.3864 11.799 71.1754 11.799 72.0004V84.0004C11.799 84.7984 12.1087 85.5604 12.6632 86.1214L14.7488 88.2424V101.514L11.9523 110.052C11.7724 110.595 11.7518 111.174 11.8904 111.729L14.6308 122.883L11.9553 131.055C11.6515 131.97 11.8049 132.978 12.3594 133.758C12.911 134.538 13.8019 135 14.7488 135H56.0462C56.8308 135 57.5801 134.685 58.1317 134.121L58.3972 133.851C59.9635 136.029 62.1434 138 64.8956 138H73.7451C75.9161 138 77.8158 137.037 79.4883 136.185C80.6329 135.6 81.8158 135 82.5945 135H97.3436C98.1282 135 98.8775 134.685 99.4291 134.121L100.146 133.392C100.332 133.632 100.509 133.869 100.683 134.097C102.131 136.017 103.627 138 106.193 138H120.942C122.573 138 123.892 136.659 123.892 135V132.843L132.027 134.907C132.909 135.138 133.845 134.928 134.564 134.355C135.281 133.785 135.697 132.906 135.691 131.976C135.688 131.682 135.505 102.246 135.691 87.0364C135.7 86.2264 135.387 85.4494 134.827 84.8764L132.741 82.7584V69.0004C132.741 68.2054 132.432 67.4404 131.877 66.8794L130.432 65.4094L132.216 61.7794L134.827 59.1244C135.381 58.5604 135.691 57.7954 135.691 57.0004L135.647 41.9704C135.647 41.7274 135.617 41.4874 135.561 41.2504L132.918 30.3544L135.381 25.3444C135.585 24.9274 135.691 24.4654 135.691 24.0004ZM100.556 36.0004L109.535 42.0004L106.541 60.0004L82.5945 42.0004L100.556 36.0004ZM44.2469 114L32.4477 105L38.3473 84.0004L61.9458 108L44.2469 114ZM106.783 111H93.0162L32.4477 38.7784L43.4593 36.0004L115.042 91.5544L106.783 111Z" fill="#ED5565"/>
</svg>
