<svg width="150" height="150" viewBox="0 0 150 150" fill="none" xmlns="http://www.w3.org/2000/svg">
<path d="M20.9629 49.6115C16.2853 58.0891 13.6243 67.7977 13.6243 78.1213C13.6243 88.4449 16.2853 98.1624 20.9629 106.64V49.6115Z" fill="#C28F2C"/>
<path d="M74.5617 18.2153C69.6172 18.2153 64.8198 18.8125 60.2162 19.8982V29.3261C64.7739 28.0413 69.5803 27.3356 74.5617 27.3356C103.088 27.3356 126.218 50.0005 126.218 77.9677C126.218 90.5623 121.512 102.08 113.75 110.938L112.277 116.104L109.017 127.541C125.011 116.747 135.509 98.6418 135.509 78.1302C135.499 45.0332 108.217 18.2153 74.5617 18.2153Z" fill="#C28F2C"/>
<path d="M60.0089 108.973H106.748H107.77C115.679 100.848 120.55 89.8452 120.55 77.7304C120.55 52.722 99.8694 32.4546 74.3544 32.4546C69.3454 32.4546 64.5297 33.2508 60.0089 34.6894V108.973Z" fill="#64B3BB"/>
<path d="M54.6912 10H19.9223L26.4875 23.3999V126.609L19.9223 140H99.7176L106.955 114.639H54.6912V10Z" fill="#C28F2C"/>
</svg>
